ISO-10303-21;
HEADER;
/* Generated by software containing ST-Developer
 * from STEP Tools, Inc. (www.steptools.com) 
 */

FILE_DESCRIPTION(
/* description */ (''),
/* implementation_level */ '2;1');

FILE_NAME(
/* name */ 'Einsatz.stp',
/* time_stamp */ '2025-11-02T11:21:06+01:00',
/* author */ ('Tim.Hermann'),
/* organization */ (''),
/* preprocessor_version */ 'ST-DEVELOPER v20',
/* originating_system */ 'Autodesk Inventor 2024',
/* authorisation */ '');

FILE_SCHEMA (('AUTOMOTIVE_DESIGN { 1 0 10303 214 3 1 1 }'));
ENDSEC;

DATA;
#10=MECHANICAL_DESIGN_GEOMETRIC_PRESENTATION_REPRESENTATION('',(#13),#604);
#11=SHAPE_REPRESENTATION_RELATIONSHIP('SRR','None',#611,#12);
#12=ADVANCED_BREP_SHAPE_REPRESENTATION('',(#14),#603);
#13=STYLED_ITEM('',(#620),#14);
#14=MANIFOLD_SOLID_BREP('Volumenk\X\F6rper1',#343);
#15=PLANE('',#369);
#16=PLANE('',#373);
#17=PLANE('',#377);
#18=PLANE('',#381);
#19=PLANE('',#382);
#20=PLANE('',#389);
#21=PLANE('',#392);
#22=PLANE('',#395);
#23=PLANE('',#398);
#24=PLANE('',#399);
#25=FACE_OUTER_BOUND('',#43,.T.);
#26=FACE_OUTER_BOUND('',#44,.T.);
#27=FACE_OUTER_BOUND('',#45,.T.);
#28=FACE_OUTER_BOUND('',#46,.T.);
#29=FACE_OUTER_BOUND('',#47,.T.);
#30=FACE_OUTER_BOUND('',#48,.T.);
#31=FACE_OUTER_BOUND('',#49,.T.);
#32=FACE_OUTER_BOUND('',#50,.T.);
#33=FACE_OUTER_BOUND('',#51,.T.);
#34=FACE_OUTER_BOUND('',#52,.T.);
#35=FACE_OUTER_BOUND('',#53,.T.);
#36=FACE_OUTER_BOUND('',#54,.T.);
#37=FACE_OUTER_BOUND('',#55,.T.);
#38=FACE_OUTER_BOUND('',#56,.T.);
#39=FACE_OUTER_BOUND('',#57,.T.);
#40=FACE_OUTER_BOUND('',#58,.T.);
#41=FACE_OUTER_BOUND('',#59,.T.);
#42=FACE_OUTER_BOUND('',#60,.T.);
#43=EDGE_LOOP('',(#221,#222,#223,#224));
#44=EDGE_LOOP('',(#225,#226,#227,#228));
#45=EDGE_LOOP('',(#229,#230,#231,#232));
#46=EDGE_LOOP('',(#233,#234,#235,#236));
#47=EDGE_LOOP('',(#237,#238,#239,#240));
#48=EDGE_LOOP('',(#241,#242,#243,#244));
#49=EDGE_LOOP('',(#245,#246,#247,#248));
#50=EDGE_LOOP('',(#249,#250,#251,#252));
#51=EDGE_LOOP('',(#253,#254,#255,#256,#257,#258,#259,#260,#261,#262,#263,
#264,#265,#266,#267,#268));
#52=EDGE_LOOP('',(#269,#270,#271,#272));
#53=EDGE_LOOP('',(#273,#274,#275,#276));
#54=EDGE_LOOP('',(#277,#278,#279,#280));
#55=EDGE_LOOP('',(#281,#282,#283,#284));
#56=EDGE_LOOP('',(#285,#286,#287,#288));
#57=EDGE_LOOP('',(#289,#290,#291,#292));
#58=EDGE_LOOP('',(#293,#294,#295,#296));
#59=EDGE_LOOP('',(#297,#298,#299,#300));
#60=EDGE_LOOP('',(#301,#302,#303,#304,#305,#306,#307,#308,#309,#310,#311,
#312,#313,#314,#315,#316));
#61=LINE('',#508,#93);
#62=LINE('',#511,#94);
#63=LINE('',#514,#95);
#64=LINE('',#516,#96);
#65=LINE('',#517,#97);
#66=LINE('',#523,#98);
#67=LINE('',#526,#99);
#68=LINE('',#529,#100);
#69=LINE('',#531,#101);
#70=LINE('',#532,#102);
#71=LINE('',#537,#103);
#72=LINE('',#541,#104);
#73=LINE('',#543,#105);
#74=LINE('',#544,#106);
#75=LINE('',#550,#107);
#76=LINE('',#553,#108);
#77=LINE('',#555,#109);
#78=LINE('',#556,#110);
#79=LINE('',#561,#111);
#80=LINE('',#565,#112);
#81=LINE('',#568,#113);
#82=LINE('',#571,#114);
#83=LINE('',#574,#115);
#84=LINE('',#578,#116);
#85=LINE('',#579,#117);
#86=LINE('',#583,#118);
#87=LINE('',#586,#119);
#88=LINE('',#587,#120);
#89=LINE('',#592,#121);
#90=LINE('',#593,#122);
#91=LINE('',#597,#123);
#92=LINE('',#599,#124);
#93=VECTOR('',#406,10.);
#94=VECTOR('',#409,10.);
#95=VECTOR('',#412,10.);
#96=VECTOR('',#413,10.);
#97=VECTOR('',#414,10.);
#98=VECTOR('',#419,10.);
#99=VECTOR('',#422,10.);
#100=VECTOR('',#425,10.);
#101=VECTOR('',#426,10.);
#102=VECTOR('',#427,10.);
#103=VECTOR('',#432,10.);
#104=VECTOR('',#437,10.);
#105=VECTOR('',#438,10.);
#106=VECTOR('',#439,10.);
#107=VECTOR('',#444,10.);
#108=VECTOR('',#447,10.);
#109=VECTOR('',#450,10.);
#110=VECTOR('',#451,10.);
#111=VECTOR('',#456,10.);
#112=VECTOR('',#459,10.);
#113=VECTOR('',#462,10.);
#114=VECTOR('',#465,10.);
#115=VECTOR('',#468,10.);
#116=VECTOR('',#473,10.);
#117=VECTOR('',#474,10.);
#118=VECTOR('',#479,10.);
#119=VECTOR('',#482,10.);
#120=VECTOR('',#483,10.);
#121=VECTOR('',#490,10.);
#122=VECTOR('',#491,10.);
#123=VECTOR('',#496,10.);
#124=VECTOR('',#499,10.);
#125=CIRCLE('',#367,2.);
#126=CIRCLE('',#368,2.);
#127=CIRCLE('',#371,2.);
#128=CIRCLE('',#372,2.);
#129=CIRCLE('',#375,2.);
#130=CIRCLE('',#376,2.);
#131=CIRCLE('',#379,2.);
#132=CIRCLE('',#380,2.);
#133=CIRCLE('',#383,47.9);
#134=CIRCLE('',#384,47.9);
#135=CIRCLE('',#385,47.9);
#136=CIRCLE('',#386,47.9);
#137=CIRCLE('',#388,47.9);
#138=CIRCLE('',#391,47.9);
#139=CIRCLE('',#394,47.9);
#140=CIRCLE('',#397,47.9);
#141=VERTEX_POINT('',#504);
#142=VERTEX_POINT('',#505);
#143=VERTEX_POINT('',#507);
#144=VERTEX_POINT('',#509);
#145=VERTEX_POINT('',#513);
#146=VERTEX_POINT('',#515);
#147=VERTEX_POINT('',#519);
#148=VERTEX_POINT('',#520);
#149=VERTEX_POINT('',#522);
#150=VERTEX_POINT('',#524);
#151=VERTEX_POINT('',#528);
#152=VERTEX_POINT('',#530);
#153=VERTEX_POINT('',#534);
#154=VERTEX_POINT('',#536);
#155=VERTEX_POINT('',#540);
#156=VERTEX_POINT('',#542);
#157=VERTEX_POINT('',#546);
#158=VERTEX_POINT('',#547);
#159=VERTEX_POINT('',#549);
#160=VERTEX_POINT('',#551);
#161=VERTEX_POINT('',#558);
#162=VERTEX_POINT('',#560);
#163=VERTEX_POINT('',#562);
#164=VERTEX_POINT('',#564);
#165=VERTEX_POINT('',#567);
#166=VERTEX_POINT('',#569);
#167=VERTEX_POINT('',#573);
#168=VERTEX_POINT('',#577);
#169=VERTEX_POINT('',#581);
#170=VERTEX_POINT('',#585);
#171=VERTEX_POINT('',#591);
#172=VERTEX_POINT('',#595);
#173=EDGE_CURVE('',#141,#142,#125,.T.);
#174=EDGE_CURVE('',#142,#143,#61,.T.);
#175=EDGE_CURVE('',#143,#144,#126,.T.);
#176=EDGE_CURVE('',#144,#141,#62,.T.);
#177=EDGE_CURVE('',#145,#142,#63,.T.);
#178=EDGE_CURVE('',#145,#146,#64,.T.);
#179=EDGE_CURVE('',#143,#146,#65,.T.);
#180=EDGE_CURVE('',#147,#148,#127,.T.);
#181=EDGE_CURVE('',#148,#149,#66,.T.);
#182=EDGE_CURVE('',#149,#150,#128,.T.);
#183=EDGE_CURVE('',#150,#147,#67,.T.);
#184=EDGE_CURVE('',#151,#148,#68,.T.);
#185=EDGE_CURVE('',#152,#151,#69,.T.);
#186=EDGE_CURVE('',#149,#152,#70,.T.);
#187=EDGE_CURVE('',#151,#153,#129,.T.);
#188=EDGE_CURVE('',#153,#154,#71,.T.);
#189=EDGE_CURVE('',#154,#152,#130,.T.);
#190=EDGE_CURVE('',#155,#153,#72,.T.);
#191=EDGE_CURVE('',#155,#156,#73,.T.);
#192=EDGE_CURVE('',#154,#156,#74,.T.);
#193=EDGE_CURVE('',#157,#158,#131,.T.);
#194=EDGE_CURVE('',#158,#159,#75,.T.);
#195=EDGE_CURVE('',#159,#160,#132,.T.);
#196=EDGE_CURVE('',#160,#157,#76,.T.);
#197=EDGE_CURVE('',#159,#144,#77,.T.);
#198=EDGE_CURVE('',#141,#158,#78,.T.);
#199=EDGE_CURVE('',#161,#145,#133,.T.);
#200=EDGE_CURVE('',#157,#162,#79,.T.);
#201=EDGE_CURVE('',#162,#163,#134,.T.);
#202=EDGE_CURVE('',#163,#164,#80,.T.);
#203=EDGE_CURVE('',#164,#155,#135,.T.);
#204=EDGE_CURVE('',#147,#165,#81,.T.);
#205=EDGE_CURVE('',#165,#166,#136,.T.);
#206=EDGE_CURVE('',#166,#161,#82,.T.);
#207=EDGE_CURVE('',#161,#167,#83,.T.);
#208=EDGE_CURVE('',#146,#167,#137,.T.);
#209=EDGE_CURVE('',#168,#160,#84,.T.);
#210=EDGE_CURVE('',#162,#168,#85,.T.);
#211=EDGE_CURVE('',#169,#168,#138,.T.);
#212=EDGE_CURVE('',#163,#169,#86,.T.);
#213=EDGE_CURVE('',#170,#169,#87,.T.);
#214=EDGE_CURVE('',#164,#170,#88,.T.);
#215=EDGE_CURVE('',#156,#170,#139,.T.);
#216=EDGE_CURVE('',#171,#150,#89,.T.);
#217=EDGE_CURVE('',#165,#171,#90,.T.);
#218=EDGE_CURVE('',#172,#171,#140,.T.);
#219=EDGE_CURVE('',#166,#172,#91,.T.);
#220=EDGE_CURVE('',#167,#172,#92,.T.);
#221=ORIENTED_EDGE('',*,*,#173,.T.);
#222=ORIENTED_EDGE('',*,*,#174,.T.);
#223=ORIENTED_EDGE('',*,*,#175,.T.);
#224=ORIENTED_EDGE('',*,*,#176,.T.);
#225=ORIENTED_EDGE('',*,*,#174,.F.);
#226=ORIENTED_EDGE('',*,*,#177,.F.);
#227=ORIENTED_EDGE('',*,*,#178,.T.);
#228=ORIENTED_EDGE('',*,*,#179,.F.);
#229=ORIENTED_EDGE('',*,*,#180,.T.);
#230=ORIENTED_EDGE('',*,*,#181,.T.);
#231=ORIENTED_EDGE('',*,*,#182,.T.);
#232=ORIENTED_EDGE('',*,*,#183,.T.);
#233=ORIENTED_EDGE('',*,*,#181,.F.);
#234=ORIENTED_EDGE('',*,*,#184,.F.);
#235=ORIENTED_EDGE('',*,*,#185,.F.);
#236=ORIENTED_EDGE('',*,*,#186,.F.);
#237=ORIENTED_EDGE('',*,*,#187,.T.);
#238=ORIENTED_EDGE('',*,*,#188,.T.);
#239=ORIENTED_EDGE('',*,*,#189,.T.);
#240=ORIENTED_EDGE('',*,*,#185,.T.);
#241=ORIENTED_EDGE('',*,*,#188,.F.);
#242=ORIENTED_EDGE('',*,*,#190,.F.);
#243=ORIENTED_EDGE('',*,*,#191,.T.);
#244=ORIENTED_EDGE('',*,*,#192,.F.);
#245=ORIENTED_EDGE('',*,*,#193,.T.);
#246=ORIENTED_EDGE('',*,*,#194,.T.);
#247=ORIENTED_EDGE('',*,*,#195,.T.);
#248=ORIENTED_EDGE('',*,*,#196,.T.);
#249=ORIENTED_EDGE('',*,*,#176,.F.);
#250=ORIENTED_EDGE('',*,*,#197,.F.);
#251=ORIENTED_EDGE('',*,*,#194,.F.);
#252=ORIENTED_EDGE('',*,*,#198,.F.);
#253=ORIENTED_EDGE('',*,*,#199,.T.);
#254=ORIENTED_EDGE('',*,*,#177,.T.);
#255=ORIENTED_EDGE('',*,*,#173,.F.);
#256=ORIENTED_EDGE('',*,*,#198,.T.);
#257=ORIENTED_EDGE('',*,*,#193,.F.);
#258=ORIENTED_EDGE('',*,*,#200,.T.);
#259=ORIENTED_EDGE('',*,*,#201,.T.);
#260=ORIENTED_EDGE('',*,*,#202,.T.);
#261=ORIENTED_EDGE('',*,*,#203,.T.);
#262=ORIENTED_EDGE('',*,*,#190,.T.);
#263=ORIENTED_EDGE('',*,*,#187,.F.);
#264=ORIENTED_EDGE('',*,*,#184,.T.);
#265=ORIENTED_EDGE('',*,*,#180,.F.);
#266=ORIENTED_EDGE('',*,*,#204,.T.);
#267=ORIENTED_EDGE('',*,*,#205,.T.);
#268=ORIENTED_EDGE('',*,*,#206,.T.);
#269=ORIENTED_EDGE('',*,*,#199,.F.);
#270=ORIENTED_EDGE('',*,*,#207,.T.);
#271=ORIENTED_EDGE('',*,*,#208,.F.);
#272=ORIENTED_EDGE('',*,*,#178,.F.);
#273=ORIENTED_EDGE('',*,*,#196,.F.);
#274=ORIENTED_EDGE('',*,*,#209,.F.);
#275=ORIENTED_EDGE('',*,*,#210,.F.);
#276=ORIENTED_EDGE('',*,*,#200,.F.);
#277=ORIENTED_EDGE('',*,*,#201,.F.);
#278=ORIENTED_EDGE('',*,*,#210,.T.);
#279=ORIENTED_EDGE('',*,*,#211,.F.);
#280=ORIENTED_EDGE('',*,*,#212,.F.);
#281=ORIENTED_EDGE('',*,*,#202,.F.);
#282=ORIENTED_EDGE('',*,*,#212,.T.);
#283=ORIENTED_EDGE('',*,*,#213,.F.);
#284=ORIENTED_EDGE('',*,*,#214,.F.);
#285=ORIENTED_EDGE('',*,*,#203,.F.);
#286=ORIENTED_EDGE('',*,*,#214,.T.);
#287=ORIENTED_EDGE('',*,*,#215,.F.);
#288=ORIENTED_EDGE('',*,*,#191,.F.);
#289=ORIENTED_EDGE('',*,*,#183,.F.);
#290=ORIENTED_EDGE('',*,*,#216,.F.);
#291=ORIENTED_EDGE('',*,*,#217,.F.);
#292=ORIENTED_EDGE('',*,*,#204,.F.);
#293=ORIENTED_EDGE('',*,*,#205,.F.);
#294=ORIENTED_EDGE('',*,*,#217,.T.);
#295=ORIENTED_EDGE('',*,*,#218,.F.);
#296=ORIENTED_EDGE('',*,*,#219,.F.);
#297=ORIENTED_EDGE('',*,*,#206,.F.);
#298=ORIENTED_EDGE('',*,*,#219,.T.);
#299=ORIENTED_EDGE('',*,*,#220,.F.);
#300=ORIENTED_EDGE('',*,*,#207,.F.);
#301=ORIENTED_EDGE('',*,*,#220,.T.);
#302=ORIENTED_EDGE('',*,*,#218,.T.);
#303=ORIENTED_EDGE('',*,*,#216,.T.);
#304=ORIENTED_EDGE('',*,*,#182,.F.);
#305=ORIENTED_EDGE('',*,*,#186,.T.);
#306=ORIENTED_EDGE('',*,*,#189,.F.);
#307=ORIENTED_EDGE('',*,*,#192,.T.);
#308=ORIENTED_EDGE('',*,*,#215,.T.);
#309=ORIENTED_EDGE('',*,*,#213,.T.);
#310=ORIENTED_EDGE('',*,*,#211,.T.);
#311=ORIENTED_EDGE('',*,*,#209,.T.);
#312=ORIENTED_EDGE('',*,*,#195,.F.);
#313=ORIENTED_EDGE('',*,*,#197,.T.);
#314=ORIENTED_EDGE('',*,*,#175,.F.);
#315=ORIENTED_EDGE('',*,*,#179,.T.);
#316=ORIENTED_EDGE('',*,*,#208,.T.);
#317=CYLINDRICAL_SURFACE('',#366,2.);
#318=CYLINDRICAL_SURFACE('',#370,2.);
#319=CYLINDRICAL_SURFACE('',#374,2.);
#320=CYLINDRICAL_SURFACE('',#378,2.);
#321=CYLINDRICAL_SURFACE('',#387,47.9);
#322=CYLINDRICAL_SURFACE('',#390,47.9);
#323=CYLINDRICAL_SURFACE('',#393,47.9);
#324=CYLINDRICAL_SURFACE('',#396,47.9);
#325=ADVANCED_FACE('',(#25),#317,.F.);
#326=ADVANCED_FACE('',(#26),#15,.T.);
#327=ADVANCED_FACE('',(#27),#318,.F.);
#328=ADVANCED_FACE('',(#28),#16,.T.);
#329=ADVANCED_FACE('',(#29),#319,.F.);
#330=ADVANCED_FACE('',(#30),#17,.T.);
#331=ADVANCED_FACE('',(#31),#320,.F.);
#332=ADVANCED_FACE('',(#32),#18,.T.);
#333=ADVANCED_FACE('',(#33),#19,.T.);
#334=ADVANCED_FACE('',(#34),#321,.T.);
#335=ADVANCED_FACE('',(#35),#20,.T.);
#336=ADVANCED_FACE('',(#36),#322,.T.);
#337=ADVANCED_FACE('',(#37),#21,.T.);
#338=ADVANCED_FACE('',(#38),#323,.T.);
#339=ADVANCED_FACE('',(#39),#22,.T.);
#340=ADVANCED_FACE('',(#40),#324,.T.);
#341=ADVANCED_FACE('',(#41),#23,.T.);
#342=ADVANCED_FACE('',(#42),#24,.T.);
#343=CLOSED_SHELL('',(#325,#326,#327,#328,#329,#330,#331,#332,#333,#334,
#335,#336,#337,#338,#339,#340,#341,#342));
#344=DERIVED_UNIT_ELEMENT(#347,1.);
#345=DERIVED_UNIT_ELEMENT(#606,-3.);
#346=DIMENSIONAL_EXPONENTS(0.,1.,0.,0.,0.,0.,0.);
#347=(
CONVERSION_BASED_UNIT('gram',#349)
MASS_UNIT()
NAMED_UNIT(#346)
);
#348=(
MASS_UNIT()
NAMED_UNIT(*)
SI_UNIT(.KILO.,.GRAM.)
);
#349=MASS_MEASURE_WITH_UNIT(MASS_MEASURE(0.001),#348);
#350=DERIVED_UNIT((#344,#345));
#351=MEASURE_REPRESENTATION_ITEM('density measure',
POSITIVE_RATIO_MEASURE(1.6),#350);
#352=PROPERTY_DEFINITION_REPRESENTATION(#357,#354);
#353=PROPERTY_DEFINITION_REPRESENTATION(#358,#355);
#354=REPRESENTATION('material name',(#356),#603);
#355=REPRESENTATION('density',(#351),#603);
#356=DESCRIPTIVE_REPRESENTATION_ITEM('Generisch','Generisch');
#357=PROPERTY_DEFINITION('material property','material name',#613);
#358=PROPERTY_DEFINITION('material property','density of part',#613);
#359=DATE_TIME_ROLE('creation_date');
#360=APPLIED_DATE_AND_TIME_ASSIGNMENT(#361,#359,(#613));
#361=DATE_AND_TIME(#362,#363);
#362=CALENDAR_DATE(2025,25,10);
#363=LOCAL_TIME(0,0,0.,#364);
#364=COORDINATED_UNIVERSAL_TIME_OFFSET(0,0,.BEHIND.);
#365=AXIS2_PLACEMENT_3D('',#502,#400,#401);
#366=AXIS2_PLACEMENT_3D('',#503,#402,#403);
#367=AXIS2_PLACEMENT_3D('',#506,#404,#405);
#368=AXIS2_PLACEMENT_3D('',#510,#407,#408);
#369=AXIS2_PLACEMENT_3D('',#512,#410,#411);
#370=AXIS2_PLACEMENT_3D('',#518,#415,#416);
#371=AXIS2_PLACEMENT_3D('',#521,#417,#418);
#372=AXIS2_PLACEMENT_3D('',#525,#420,#421);
#373=AXIS2_PLACEMENT_3D('',#527,#423,#424);
#374=AXIS2_PLACEMENT_3D('',#533,#428,#429);
#375=AXIS2_PLACEMENT_3D('',#535,#430,#431);
#376=AXIS2_PLACEMENT_3D('',#538,#433,#434);
#377=AXIS2_PLACEMENT_3D('',#539,#435,#436);
#378=AXIS2_PLACEMENT_3D('',#545,#440,#441);
#379=AXIS2_PLACEMENT_3D('',#548,#442,#443);
#380=AXIS2_PLACEMENT_3D('',#552,#445,#446);
#381=AXIS2_PLACEMENT_3D('',#554,#448,#449);
#382=AXIS2_PLACEMENT_3D('',#557,#452,#453);
#383=AXIS2_PLACEMENT_3D('',#559,#454,#455);
#384=AXIS2_PLACEMENT_3D('',#563,#457,#458);
#385=AXIS2_PLACEMENT_3D('',#566,#460,#461);
#386=AXIS2_PLACEMENT_3D('',#570,#463,#464);
#387=AXIS2_PLACEMENT_3D('',#572,#466,#467);
#388=AXIS2_PLACEMENT_3D('',#575,#469,#470);
#389=AXIS2_PLACEMENT_3D('',#576,#471,#472);
#390=AXIS2_PLACEMENT_3D('',#580,#475,#476);
#391=AXIS2_PLACEMENT_3D('',#582,#477,#478);
#392=AXIS2_PLACEMENT_3D('',#584,#480,#481);
#393=AXIS2_PLACEMENT_3D('',#588,#484,#485);
#394=AXIS2_PLACEMENT_3D('',#589,#486,#487);
#395=AXIS2_PLACEMENT_3D('',#590,#488,#489);
#396=AXIS2_PLACEMENT_3D('',#594,#492,#493);
#397=AXIS2_PLACEMENT_3D('',#596,#494,#495);
#398=AXIS2_PLACEMENT_3D('',#598,#497,#498);
#399=AXIS2_PLACEMENT_3D('',#600,#500,#501);
#400=DIRECTION('axis',(0.,0.,1.));
#401=DIRECTION('refdir',(1.,0.,0.));
#402=DIRECTION('center_axis',(0.,1.,0.));
#403=DIRECTION('ref_axis',(-0.707106781186546,0.,-0.707106781186549));
#404=DIRECTION('center_axis',(0.,-1.,0.));
#405=DIRECTION('ref_axis',(-0.707106781186546,0.,-0.707106781186549));
#406=DIRECTION('',(0.,1.,0.));
#407=DIRECTION('center_axis',(0.,1.,0.));
#408=DIRECTION('ref_axis',(-0.707106781186546,0.,-0.707106781186549));
#409=DIRECTION('',(0.,-1.,0.));
#410=DIRECTION('center_axis',(0.,0.,1.));
#411=DIRECTION('ref_axis',(1.,0.,0.));
#412=DIRECTION('',(-1.,0.,0.));
#413=DIRECTION('',(0.,1.,0.));
#414=DIRECTION('',(1.,0.,0.));
#415=DIRECTION('center_axis',(0.,1.,0.));
#416=DIRECTION('ref_axis',(0.707106781186549,0.,-0.707106781186546));
#417=DIRECTION('center_axis',(0.,-1.,0.));
#418=DIRECTION('ref_axis',(0.707106781186549,0.,-0.707106781186546));
#419=DIRECTION('',(0.,1.,0.));
#420=DIRECTION('center_axis',(0.,1.,0.));
#421=DIRECTION('ref_axis',(0.707106781186549,0.,-0.707106781186546));
#422=DIRECTION('',(0.,-1.,0.));
#423=DIRECTION('center_axis',(-1.,0.,-1.80411241501588E-16));
#424=DIRECTION('ref_axis',(-1.80411241501588E-16,0.,1.));
#425=DIRECTION('',(1.80411241501588E-16,0.,-1.));
#426=DIRECTION('',(0.,-1.,0.));
#427=DIRECTION('',(-1.80411241501588E-16,0.,1.));
#428=DIRECTION('center_axis',(0.,1.,0.));
#429=DIRECTION('ref_axis',(0.707106781186549,0.,0.707106781186546));
#430=DIRECTION('center_axis',(0.,-1.,0.));
#431=DIRECTION('ref_axis',(0.707106781186549,0.,0.707106781186546));
#432=DIRECTION('',(0.,1.,0.));
#433=DIRECTION('center_axis',(0.,1.,0.));
#434=DIRECTION('ref_axis',(0.707106781186549,0.,0.707106781186546));
#435=DIRECTION('center_axis',(0.,0.,-1.));
#436=DIRECTION('ref_axis',(-1.,0.,0.));
#437=DIRECTION('',(1.,0.,0.));
#438=DIRECTION('',(0.,1.,0.));
#439=DIRECTION('',(-1.,0.,0.));
#440=DIRECTION('center_axis',(0.,1.,0.));
#441=DIRECTION('ref_axis',(-0.707106781186548,0.,0.707106781186547));
#442=DIRECTION('center_axis',(0.,-1.,0.));
#443=DIRECTION('ref_axis',(-0.707106781186548,0.,0.707106781186547));
#444=DIRECTION('',(0.,1.,0.));
#445=DIRECTION('center_axis',(0.,1.,0.));
#446=DIRECTION('ref_axis',(-0.707106781186548,0.,0.707106781186547));
#447=DIRECTION('',(0.,-1.,0.));
#448=DIRECTION('center_axis',(1.,0.,-1.80411241501588E-16));
#449=DIRECTION('ref_axis',(-1.80411241501588E-16,0.,-1.));
#450=DIRECTION('',(-1.80411241501588E-16,0.,-1.));
#451=DIRECTION('',(1.80411241501588E-16,0.,1.));
#452=DIRECTION('center_axis',(0.,-1.,0.));
#453=DIRECTION('ref_axis',(0.,0.,-1.));
#454=DIRECTION('center_axis',(0.,-1.,0.));
#455=DIRECTION('ref_axis',(1.,0.,-1.21545084366061E-12));
#456=DIRECTION('',(1.,0.,0.));
#457=DIRECTION('center_axis',(0.,-1.,0.));
#458=DIRECTION('ref_axis',(-1.,0.,1.21545084366061E-12));
#459=DIRECTION('',(-1.,0.,0.));
#460=DIRECTION('center_axis',(0.,-1.,0.));
#461=DIRECTION('ref_axis',(-1.,0.,1.21545084366061E-12));
#462=DIRECTION('',(-1.,0.,0.));
#463=DIRECTION('center_axis',(0.,-1.,0.));
#464=DIRECTION('ref_axis',(1.,0.,-1.21545084366061E-12));
#465=DIRECTION('',(1.,0.,0.));
#466=DIRECTION('center_axis',(0.,1.,0.));
#467=DIRECTION('ref_axis',(1.,0.,-1.21545084366061E-12));
#468=DIRECTION('',(0.,1.,0.));
#469=DIRECTION('center_axis',(0.,1.,0.));
#470=DIRECTION('ref_axis',(1.,0.,-1.21545084366061E-12));
#471=DIRECTION('center_axis',(0.,0.,-1.));
#472=DIRECTION('ref_axis',(-1.,0.,0.));
#473=DIRECTION('',(-1.,0.,0.));
#474=DIRECTION('',(0.,1.,0.));
#475=DIRECTION('center_axis',(0.,1.,0.));
#476=DIRECTION('ref_axis',(-1.,0.,1.21545084366061E-12));
#477=DIRECTION('center_axis',(0.,1.,0.));
#478=DIRECTION('ref_axis',(-1.,0.,1.21545084366061E-12));
#479=DIRECTION('',(0.,1.,0.));
#480=DIRECTION('center_axis',(0.,0.,1.));
#481=DIRECTION('ref_axis',(1.,0.,0.));
#482=DIRECTION('',(1.,0.,0.));
#483=DIRECTION('',(0.,1.,0.));
#484=DIRECTION('center_axis',(0.,1.,0.));
#485=DIRECTION('ref_axis',(-1.,0.,1.21545084366061E-12));
#486=DIRECTION('center_axis',(0.,1.,0.));
#487=DIRECTION('ref_axis',(-1.,0.,1.21545084366061E-12));
#488=DIRECTION('center_axis',(0.,0.,1.));
#489=DIRECTION('ref_axis',(1.,0.,0.));
#490=DIRECTION('',(1.,0.,0.));
#491=DIRECTION('',(0.,1.,0.));
#492=DIRECTION('center_axis',(0.,1.,0.));
#493=DIRECTION('ref_axis',(1.,0.,-1.21545084366061E-12));
#494=DIRECTION('center_axis',(0.,1.,0.));
#495=DIRECTION('ref_axis',(1.,0.,-1.21545084366061E-12));
#496=DIRECTION('',(0.,1.,0.));
#497=DIRECTION('center_axis',(0.,0.,-1.));
#498=DIRECTION('ref_axis',(-1.,0.,0.));
#499=DIRECTION('',(-1.,0.,0.));
#500=DIRECTION('center_axis',(0.,1.,0.));
#501=DIRECTION('ref_axis',(0.,0.,1.));
#502=CARTESIAN_POINT('',(0.,0.,0.));
#503=CARTESIAN_POINT('Origin',(3.74999999999999,3.,-78.0000000000001));
#504=CARTESIAN_POINT('',(1.74999999999999,3.,-78.0000000000001));
#505=CARTESIAN_POINT('',(3.74999999999999,3.,-80.0000000000001));
#506=CARTESIAN_POINT('Origin',(3.74999999999999,3.,-78.0000000000001));
#507=CARTESIAN_POINT('',(3.74999999999998,73.,-80.0000000000001));
#508=CARTESIAN_POINT('',(3.74999999999999,3.,-80.0000000000001));
#509=CARTESIAN_POINT('',(1.74999999999999,73.,-78.0000000000001));
#510=CARTESIAN_POINT('Origin',(3.74999999999999,73.,-78.0000000000001));
#511=CARTESIAN_POINT('',(1.74999999999999,3.,-78.0000000000001));
#512=CARTESIAN_POINT('Origin',(1.74999999999999,3.,-80.0000000000001));
#513=CARTESIAN_POINT('',(47.7326931986872,3.,-80.0000000000001));
#514=CARTESIAN_POINT('',(0.874999999999999,3.,-80.0000000000001));
#515=CARTESIAN_POINT('',(47.7326931986872,73.,-80.0000000000001));
#516=CARTESIAN_POINT('',(47.7326931986872,3.,-80.0000000000001));
#517=CARTESIAN_POINT('',(-47.8330429724056,73.,-80.0000000000001));
#518=CARTESIAN_POINT('Origin',(-3.74999999999999,3.,-78.0000000000001));
#519=CARTESIAN_POINT('',(-3.74999999999999,3.,-80.0000000000001));
#520=CARTESIAN_POINT('',(-1.74999999999999,3.,-78.0000000000001));
#521=CARTESIAN_POINT('Origin',(-3.74999999999999,3.,-78.0000000000001));
#522=CARTESIAN_POINT('',(-1.74999999999999,73.,-78.0000000000001));
#523=CARTESIAN_POINT('',(-1.74999999999999,3.,-78.0000000000001));
#524=CARTESIAN_POINT('',(-3.74999999999998,73.,-80.0000000000001));
#525=CARTESIAN_POINT('Origin',(-3.74999999999999,73.,-78.0000000000001));
#526=CARTESIAN_POINT('',(-3.74999999999999,3.,-80.0000000000001));
#527=CARTESIAN_POINT('Origin',(-1.74999999999999,3.,-80.0000000000001));
#528=CARTESIAN_POINT('',(-1.75000000000001,3.,77.9999999999999));
#529=CARTESIAN_POINT('',(-1.74999999999999,3.,-40.0000000000001));
#530=CARTESIAN_POINT('',(-1.75000000000001,73.,77.9999999999999));
#531=CARTESIAN_POINT('',(-1.75000000000001,3.,77.9999999999999));
#532=CARTESIAN_POINT('',(-1.74999999999999,73.,-80.0000000000001));
#533=CARTESIAN_POINT('Origin',(-3.75000000000002,3.,77.9999999999999));
#534=CARTESIAN_POINT('',(-3.75000000000002,3.,79.9999999999999));
#535=CARTESIAN_POINT('Origin',(-3.75000000000002,3.,77.9999999999999));
#536=CARTESIAN_POINT('',(-3.75000000000002,73.,79.9999999999999));
#537=CARTESIAN_POINT('',(-3.75000000000002,3.,79.9999999999999));
#538=CARTESIAN_POINT('Origin',(-3.75000000000002,73.,77.9999999999999));
#539=CARTESIAN_POINT('Origin',(-1.75000000000002,3.,79.9999999999999));
#540=CARTESIAN_POINT('',(-47.7326931986872,3.,79.9999999999999));
#541=CARTESIAN_POINT('',(-0.875000000000004,3.,79.9999999999999));
#542=CARTESIAN_POINT('',(-47.7326931986872,73.,79.9999999999999));
#543=CARTESIAN_POINT('',(-47.7326931986872,3.,79.9999999999999));
#544=CARTESIAN_POINT('',(47.8330429724056,73.,79.9999999999999));
#545=CARTESIAN_POINT('Origin',(3.75000000000001,3.,77.9999999999999));
#546=CARTESIAN_POINT('',(3.75000000000001,3.,79.9999999999999));
#547=CARTESIAN_POINT('',(1.75000000000001,3.,77.9999999999999));
#548=CARTESIAN_POINT('Origin',(3.75000000000001,3.,77.9999999999999));
#549=CARTESIAN_POINT('',(1.75000000000001,73.,77.9999999999999));
#550=CARTESIAN_POINT('',(1.75000000000001,3.,77.9999999999999));
#551=CARTESIAN_POINT('',(3.75000000000002,73.,79.9999999999999));
#552=CARTESIAN_POINT('Origin',(3.75000000000001,73.,77.9999999999999));
#553=CARTESIAN_POINT('',(3.75000000000001,3.,79.9999999999999));
#554=CARTESIAN_POINT('Origin',(1.75000000000001,3.,79.9999999999999));
#555=CARTESIAN_POINT('',(1.75000000000001,73.,79.9999999999999));
#556=CARTESIAN_POINT('',(1.75000000000001,3.,40.));
#557=CARTESIAN_POINT('Origin',(8.88178419700125E-15,3.,0.));
#558=CARTESIAN_POINT('',(47.3091957234531,3.,-83.5000000000001));
#559=CARTESIAN_POINT('Origin',(-2.79219470205596E-14,3.,-76.));
#560=CARTESIAN_POINT('',(47.7326931986872,3.,79.9999999999999));
#561=CARTESIAN_POINT('',(23.8663465993436,3.,79.9999999999999));
#562=CARTESIAN_POINT('',(47.3091957234532,3.,83.4999999999999));
#563=CARTESIAN_POINT('Origin',(0.,3.,76.));
#564=CARTESIAN_POINT('',(-47.3091957234532,3.,83.4999999999999));
#565=CARTESIAN_POINT('',(-23.6545978617266,3.,83.4999999999999));
#566=CARTESIAN_POINT('Origin',(0.,3.,76.));
#567=CARTESIAN_POINT('',(-47.7326931986872,3.,-80.0000000000001));
#568=CARTESIAN_POINT('',(-23.8663465993436,3.,-80.0000000000001));
#569=CARTESIAN_POINT('',(-47.3091957234532,3.,-83.5));
#570=CARTESIAN_POINT('Origin',(-2.79219470205596E-14,3.,-76.));
#571=CARTESIAN_POINT('',(23.6545978617266,3.,-83.5000000000001));
#572=CARTESIAN_POINT('Origin',(-2.79219470205596E-14,3.,-76.));
#573=CARTESIAN_POINT('',(47.3091957234531,73.,-83.5000000000001));
#574=CARTESIAN_POINT('',(47.3091957234531,3.,-83.5000000000001));
#575=CARTESIAN_POINT('Origin',(-2.79219470205596E-14,73.,-76.));
#576=CARTESIAN_POINT('Origin',(47.7326931986872,3.,79.9999999999999));
#577=CARTESIAN_POINT('',(47.7326931986872,73.,79.9999999999999));
#578=CARTESIAN_POINT('',(47.8330429724056,73.,79.9999999999999));
#579=CARTESIAN_POINT('',(47.7326931986872,3.,79.9999999999999));
#580=CARTESIAN_POINT('Origin',(0.,3.,76.));
#581=CARTESIAN_POINT('',(47.3091957234532,73.,83.4999999999999));
#582=CARTESIAN_POINT('Origin',(0.,73.,76.));
#583=CARTESIAN_POINT('',(47.3091957234532,3.,83.4999999999999));
#584=CARTESIAN_POINT('Origin',(-47.3091957234532,3.,83.4999999999999));
#585=CARTESIAN_POINT('',(-47.3091957234532,73.,83.4999999999999));
#586=CARTESIAN_POINT('',(-47.4104418878374,73.,83.4999999999999));
#587=CARTESIAN_POINT('',(-47.3091957234532,3.,83.4999999999999));
#588=CARTESIAN_POINT('Origin',(0.,3.,76.));
#589=CARTESIAN_POINT('Origin',(0.,73.,76.));
#590=CARTESIAN_POINT('Origin',(-47.7326931986872,3.,-80.0000000000001));
#591=CARTESIAN_POINT('',(-47.7326931986872,73.,-80.0000000000001));
#592=CARTESIAN_POINT('',(-47.8330429724056,73.,-80.0000000000001));
#593=CARTESIAN_POINT('',(-47.7326931986872,3.,-80.0000000000001));
#594=CARTESIAN_POINT('Origin',(-2.79219470205596E-14,3.,-76.));
#595=CARTESIAN_POINT('',(-47.3091957234532,73.,-83.5));
#596=CARTESIAN_POINT('Origin',(-2.79219470205596E-14,73.,-76.));
#597=CARTESIAN_POINT('',(-47.3091957234532,3.,-83.5));
#598=CARTESIAN_POINT('Origin',(47.3091957234531,3.,-83.5000000000001));
#599=CARTESIAN_POINT('',(47.4104418878374,73.,-83.5000000000001));
#600=CARTESIAN_POINT('Origin',(-8.88178419700125E-15,73.,-7.105427357601E-14));
#601=UNCERTAINTY_MEASURE_WITH_UNIT(LENGTH_MEASURE(0.01),#605,
'DISTANCE_ACCURACY_VALUE',
'Maximum model space distance between geometric entities at asserted c
onnectivities');
#602=UNCERTAINTY_MEASURE_WITH_UNIT(LENGTH_MEASURE(0.01),#605,
'DISTANCE_ACCURACY_VALUE',
'Maximum model space distance between geometric entities at asserted c
onnectivities');
#603=(
GEOMETRIC_REPRESENTATION_CONTEXT(3)
GLOBAL_UNCERTAINTY_ASSIGNED_CONTEXT((#601))
GLOBAL_UNIT_ASSIGNED_CONTEXT((#605,#607,#608))
REPRESENTATION_CONTEXT('','3D')
);
#604=(
GEOMETRIC_REPRESENTATION_CONTEXT(3)
GLOBAL_UNCERTAINTY_ASSIGNED_CONTEXT((#602))
GLOBAL_UNIT_ASSIGNED_CONTEXT((#605,#607,#608))
REPRESENTATION_CONTEXT('','3D')
);
#605=(
LENGTH_UNIT()
NAMED_UNIT(*)
SI_UNIT(.MILLI.,.METRE.)
);
#606=(
LENGTH_UNIT()
NAMED_UNIT(*)
SI_UNIT(.CENTI.,.METRE.)
);
#607=(
NAMED_UNIT(*)
PLANE_ANGLE_UNIT()
SI_UNIT($,.RADIAN.)
);
#608=(
NAMED_UNIT(*)
SI_UNIT($,.STERADIAN.)
SOLID_ANGLE_UNIT()
);
#609=SHAPE_DEFINITION_REPRESENTATION(#610,#611);
#610=PRODUCT_DEFINITION_SHAPE('',$,#613);
#611=SHAPE_REPRESENTATION('',(#365),#603);
#612=PRODUCT_DEFINITION_CONTEXT('part definition',#617,'design');
#613=PRODUCT_DEFINITION('Beh\X\E4lter Bad','Einsatz',#614,#612);
#614=PRODUCT_DEFINITION_FORMATION('',$,#619);
#615=PRODUCT_RELATED_PRODUCT_CATEGORY('Einsatz','Einsatz',(#619));
#616=APPLICATION_PROTOCOL_DEFINITION('international standard',
'automotive_design',2009,#617);
#617=APPLICATION_CONTEXT(
'Core Data for Automotive Mechanical Design Process');
#618=PRODUCT_CONTEXT('part definition',#617,'mechanical');
#619=PRODUCT('Beh\X\E4lter Bad','Einsatz',$,(#618));
#620=PRESENTATION_STYLE_ASSIGNMENT((#621));
#621=SURFACE_STYLE_USAGE(.BOTH.,#624);
#622=SURFACE_STYLE_RENDERING_WITH_PROPERTIES($,#628,(#623));
#623=SURFACE_STYLE_TRANSPARENT(0.);
#624=SURFACE_SIDE_STYLE('',(#625,#622));
#625=SURFACE_STYLE_FILL_AREA(#626);
#626=FILL_AREA_STYLE('',(#627));
#627=FILL_AREA_STYLE_COLOUR('',#628);
#628=COLOUR_RGB('',0.580392156862745,0.541176470588235,0.443137254901961);
ENDSEC;
END-ISO-10303-21;
