ISO-10303-21;
HEADER;
/* Generated by software containing ST-Developer
 * from STEP Tools, Inc. (www.steptools.com) 
 */

FILE_DESCRIPTION(
/* description */ (''),
/* implementation_level */ '2;1');

FILE_NAME(
/* name */ 'Deckel.stp',
/* time_stamp */ '2025-11-02T11:19:27+01:00',
/* author */ ('Tim.Hermann'),
/* organization */ (''),
/* preprocessor_version */ 'ST-DEVELOPER v20',
/* originating_system */ 'Autodesk Inventor 2024',
/* authorisation */ '');

FILE_SCHEMA (('AUTOMOTIVE_DESIGN { 1 0 10303 214 3 1 1 }'));
ENDSEC;

DATA;
#10=MECHANICAL_DESIGN_GEOMETRIC_PRESENTATION_REPRESENTATION('',(#13),#688);
#11=SHAPE_REPRESENTATION_RELATIONSHIP('SRR','None',#695,#12);
#12=ADVANCED_BREP_SHAPE_REPRESENTATION('',(#14),#687);
#13=STYLED_ITEM('',(#704),#14);
#14=MANIFOLD_SOLID_BREP('Volumenk\X\F6rper1',#387);
#15=FACE_BOUND('',#67,.T.);
#16=FACE_BOUND('',#73,.T.);
#17=CONICAL_SURFACE('',#425,47.05,0.349065850398866);
#18=CONICAL_SURFACE('',#432,47.05,0.349065850398866);
#19=TOROIDAL_SURFACE('',#416,45.8,2.);
#20=TOROIDAL_SURFACE('',#422,45.8,2.);
#21=CYLINDRICAL_SURFACE('',#413,2.);
#22=CYLINDRICAL_SURFACE('',#420,2.);
#23=CYLINDRICAL_SURFACE('',#428,47.8);
#24=CYLINDRICAL_SURFACE('',#434,47.8);
#25=CYLINDRICAL_SURFACE('',#440,44.8);
#26=CYLINDRICAL_SURFACE('',#442,44.8);
#27=CYLINDRICAL_SURFACE('',#448,51.);
#28=CYLINDRICAL_SURFACE('',#451,51.);
#29=FACE_OUTER_BOUND('',#53,.T.);
#30=FACE_OUTER_BOUND('',#54,.T.);
#31=FACE_OUTER_BOUND('',#55,.T.);
#32=FACE_OUTER_BOUND('',#56,.T.);
#33=FACE_OUTER_BOUND('',#57,.T.);
#34=FACE_OUTER_BOUND('',#58,.T.);
#35=FACE_OUTER_BOUND('',#59,.T.);
#36=FACE_OUTER_BOUND('',#60,.T.);
#37=FACE_OUTER_BOUND('',#61,.T.);
#38=FACE_OUTER_BOUND('',#62,.T.);
#39=FACE_OUTER_BOUND('',#63,.T.);
#40=FACE_OUTER_BOUND('',#64,.T.);
#41=FACE_OUTER_BOUND('',#65,.T.);
#42=FACE_OUTER_BOUND('',#66,.T.);
#43=FACE_OUTER_BOUND('',#68,.T.);
#44=FACE_OUTER_BOUND('',#69,.T.);
#45=FACE_OUTER_BOUND('',#70,.T.);
#46=FACE_OUTER_BOUND('',#71,.T.);
#47=FACE_OUTER_BOUND('',#72,.T.);
#48=FACE_OUTER_BOUND('',#74,.T.);
#49=FACE_OUTER_BOUND('',#75,.T.);
#50=FACE_OUTER_BOUND('',#76,.T.);
#51=FACE_OUTER_BOUND('',#77,.T.);
#52=FACE_OUTER_BOUND('',#78,.T.);
#53=EDGE_LOOP('',(#247,#248,#249,#250));
#54=EDGE_LOOP('',(#251,#252,#253,#254));
#55=EDGE_LOOP('',(#255,#256,#257,#258));
#56=EDGE_LOOP('',(#259,#260,#261,#262));
#57=EDGE_LOOP('',(#263,#264,#265,#266));
#58=EDGE_LOOP('',(#267,#268,#269,#270));
#59=EDGE_LOOP('',(#271,#272,#273,#274));
#60=EDGE_LOOP('',(#275,#276,#277,#278));
#61=EDGE_LOOP('',(#279,#280,#281,#282));
#62=EDGE_LOOP('',(#283,#284,#285,#286));
#63=EDGE_LOOP('',(#287,#288,#289,#290));
#64=EDGE_LOOP('',(#291,#292,#293,#294));
#65=EDGE_LOOP('',(#295,#296,#297,#298));
#66=EDGE_LOOP('',(#299,#300,#301,#302));
#67=EDGE_LOOP('',(#303,#304,#305,#306));
#68=EDGE_LOOP('',(#307,#308,#309,#310));
#69=EDGE_LOOP('',(#311,#312,#313,#314));
#70=EDGE_LOOP('',(#315,#316,#317,#318));
#71=EDGE_LOOP('',(#319,#320,#321,#322));
#72=EDGE_LOOP('',(#323,#324,#325,#326));
#73=EDGE_LOOP('',(#327,#328,#329,#330));
#74=EDGE_LOOP('',(#331,#332,#333,#334));
#75=EDGE_LOOP('',(#335,#336,#337,#338));
#76=EDGE_LOOP('',(#339,#340,#341,#342));
#77=EDGE_LOOP('',(#343,#344,#345,#346));
#78=EDGE_LOOP('',(#347,#348,#349,#350));
#79=CIRCLE('',#411,44.8);
#80=CIRCLE('',#412,44.8);
#81=CIRCLE('',#414,2.);
#82=CIRCLE('',#415,2.);
#83=CIRCLE('',#417,47.8);
#84=CIRCLE('',#418,2.);
#85=CIRCLE('',#419,47.6793852415718);
#86=CIRCLE('',#421,2.);
#87=CIRCLE('',#423,47.8);
#88=CIRCLE('',#424,47.6793852415718);
#89=CIRCLE('',#426,46.3);
#90=CIRCLE('',#429,47.8);
#91=CIRCLE('',#433,46.3);
#92=CIRCLE('',#435,47.8);
#93=CIRCLE('',#438,44.8);
#94=CIRCLE('',#439,44.8);
#95=CIRCLE('',#445,51.);
#96=CIRCLE('',#446,51.);
#97=CIRCLE('',#449,51.);
#98=CIRCLE('',#452,51.);
#99=LINE('',#580,#131);
#100=LINE('',#584,#132);
#101=LINE('',#591,#133);
#102=LINE('',#594,#134);
#103=LINE('',#603,#135);
#104=LINE('',#606,#136);
#105=LINE('',#612,#137);
#106=LINE('',#615,#138);
#107=LINE('',#618,#139);
#108=LINE('',#619,#140);
#109=LINE('',#622,#141);
#110=LINE('',#625,#142);
#111=LINE('',#628,#143);
#112=LINE('',#629,#144);
#113=LINE('',#632,#145);
#114=LINE('',#633,#146);
#115=LINE('',#638,#147);
#116=LINE('',#641,#148);
#117=LINE('',#645,#149);
#118=LINE('',#649,#150);
#119=LINE('',#652,#151);
#120=LINE('',#653,#152);
#121=LINE('',#655,#153);
#122=LINE('',#657,#154);
#123=LINE('',#664,#155);
#124=LINE('',#667,#156);
#125=LINE('',#671,#157);
#126=LINE('',#672,#158);
#127=LINE('',#673,#159);
#128=LINE('',#677,#160);
#129=LINE('',#680,#161);
#130=LINE('',#681,#162);
#131=VECTOR('',#458,10.);
#132=VECTOR('',#461,10.);
#133=VECTOR('',#468,10.);
#134=VECTOR('',#471,10.);
#135=VECTOR('',#482,10.);
#136=VECTOR('',#485,10.);
#137=VECTOR('',#494,10.);
#138=VECTOR('',#497,10.);
#139=VECTOR('',#500,10.);
#140=VECTOR('',#501,10.);
#141=VECTOR('',#504,10.);
#142=VECTOR('',#507,10.);
#143=VECTOR('',#510,10.);
#144=VECTOR('',#511,10.);
#145=VECTOR('',#514,10.);
#146=VECTOR('',#515,10.);
#147=VECTOR('',#522,10.);
#148=VECTOR('',#527,10.);
#149=VECTOR('',#530,10.);
#150=VECTOR('',#533,10.);
#151=VECTOR('',#538,10.);
#152=VECTOR('',#539,10.);
#153=VECTOR('',#542,10.);
#154=VECTOR('',#545,10.);
#155=VECTOR('',#552,10.);
#156=VECTOR('',#555,10.);
#157=VECTOR('',#558,10.);
#158=VECTOR('',#559,10.);
#159=VECTOR('',#560,10.);
#160=VECTOR('',#565,10.);
#161=VECTOR('',#568,10.);
#162=VECTOR('',#569,10.);
#163=VERTEX_POINT('',#578);
#164=VERTEX_POINT('',#579);
#165=VERTEX_POINT('',#581);
#166=VERTEX_POINT('',#583);
#167=VERTEX_POINT('',#587);
#168=VERTEX_POINT('',#588);
#169=VERTEX_POINT('',#590);
#170=VERTEX_POINT('',#592);
#171=VERTEX_POINT('',#596);
#172=VERTEX_POINT('',#598);
#173=VERTEX_POINT('',#602);
#174=VERTEX_POINT('',#604);
#175=VERTEX_POINT('',#611);
#176=VERTEX_POINT('',#613);
#177=VERTEX_POINT('',#617);
#178=VERTEX_POINT('',#621);
#179=VERTEX_POINT('',#623);
#180=VERTEX_POINT('',#627);
#181=VERTEX_POINT('',#631);
#182=VERTEX_POINT('',#637);
#183=VERTEX_POINT('',#643);
#184=VERTEX_POINT('',#644);
#185=VERTEX_POINT('',#646);
#186=VERTEX_POINT('',#648);
#187=VERTEX_POINT('',#660);
#188=VERTEX_POINT('',#661);
#189=VERTEX_POINT('',#663);
#190=VERTEX_POINT('',#665);
#191=VERTEX_POINT('',#669);
#192=VERTEX_POINT('',#670);
#193=VERTEX_POINT('',#675);
#194=VERTEX_POINT('',#679);
#195=EDGE_CURVE('',#163,#164,#99,.T.);
#196=EDGE_CURVE('',#165,#163,#79,.T.);
#197=EDGE_CURVE('',#166,#165,#100,.T.);
#198=EDGE_CURVE('',#164,#166,#80,.T.);
#199=EDGE_CURVE('',#167,#168,#81,.T.);
#200=EDGE_CURVE('',#168,#169,#101,.T.);
#201=EDGE_CURVE('',#169,#170,#82,.T.);
#202=EDGE_CURVE('',#170,#167,#102,.T.);
#203=EDGE_CURVE('',#169,#171,#83,.T.);
#204=EDGE_CURVE('',#171,#172,#84,.T.);
#205=EDGE_CURVE('',#172,#170,#85,.T.);
#206=EDGE_CURVE('',#171,#173,#103,.T.);
#207=EDGE_CURVE('',#173,#174,#86,.T.);
#208=EDGE_CURVE('',#174,#172,#104,.T.);
#209=EDGE_CURVE('',#173,#168,#87,.T.);
#210=EDGE_CURVE('',#167,#174,#88,.T.);
#211=EDGE_CURVE('',#167,#175,#105,.T.);
#212=EDGE_CURVE('',#175,#176,#89,.T.);
#213=EDGE_CURVE('',#174,#176,#106,.T.);
#214=EDGE_CURVE('',#170,#177,#107,.T.);
#215=EDGE_CURVE('',#177,#175,#108,.T.);
#216=EDGE_CURVE('',#178,#169,#109,.T.);
#217=EDGE_CURVE('',#179,#178,#90,.T.);
#218=EDGE_CURVE('',#179,#171,#110,.T.);
#219=EDGE_CURVE('',#180,#168,#111,.T.);
#220=EDGE_CURVE('',#178,#180,#112,.T.);
#221=EDGE_CURVE('',#176,#181,#113,.T.);
#222=EDGE_CURVE('',#181,#172,#114,.T.);
#223=EDGE_CURVE('',#181,#177,#91,.T.);
#224=EDGE_CURVE('',#182,#173,#115,.T.);
#225=EDGE_CURVE('',#180,#182,#92,.T.);
#226=EDGE_CURVE('',#182,#179,#116,.T.);
#227=EDGE_CURVE('',#183,#184,#117,.T.);
#228=EDGE_CURVE('',#184,#185,#93,.T.);
#229=EDGE_CURVE('',#185,#186,#118,.T.);
#230=EDGE_CURVE('',#186,#183,#94,.T.);
#231=EDGE_CURVE('',#166,#183,#119,.T.);
#232=EDGE_CURVE('',#186,#164,#120,.T.);
#233=EDGE_CURVE('',#185,#163,#121,.T.);
#234=EDGE_CURVE('',#184,#165,#122,.T.);
#235=EDGE_CURVE('',#187,#188,#95,.T.);
#236=EDGE_CURVE('',#188,#189,#123,.T.);
#237=EDGE_CURVE('',#189,#190,#96,.T.);
#238=EDGE_CURVE('',#190,#187,#124,.T.);
#239=EDGE_CURVE('',#191,#192,#125,.T.);
#240=EDGE_CURVE('',#192,#187,#126,.T.);
#241=EDGE_CURVE('',#191,#190,#127,.T.);
#242=EDGE_CURVE('',#193,#191,#97,.T.);
#243=EDGE_CURVE('',#193,#189,#128,.T.);
#244=EDGE_CURVE('',#194,#193,#129,.T.);
#245=EDGE_CURVE('',#194,#188,#130,.T.);
#246=EDGE_CURVE('',#192,#194,#98,.T.);
#247=ORIENTED_EDGE('',*,*,#195,.F.);
#248=ORIENTED_EDGE('',*,*,#196,.F.);
#249=ORIENTED_EDGE('',*,*,#197,.F.);
#250=ORIENTED_EDGE('',*,*,#198,.F.);
#251=ORIENTED_EDGE('',*,*,#199,.T.);
#252=ORIENTED_EDGE('',*,*,#200,.T.);
#253=ORIENTED_EDGE('',*,*,#201,.T.);
#254=ORIENTED_EDGE('',*,*,#202,.T.);
#255=ORIENTED_EDGE('',*,*,#201,.F.);
#256=ORIENTED_EDGE('',*,*,#203,.T.);
#257=ORIENTED_EDGE('',*,*,#204,.T.);
#258=ORIENTED_EDGE('',*,*,#205,.T.);
#259=ORIENTED_EDGE('',*,*,#204,.F.);
#260=ORIENTED_EDGE('',*,*,#206,.T.);
#261=ORIENTED_EDGE('',*,*,#207,.T.);
#262=ORIENTED_EDGE('',*,*,#208,.T.);
#263=ORIENTED_EDGE('',*,*,#207,.F.);
#264=ORIENTED_EDGE('',*,*,#209,.T.);
#265=ORIENTED_EDGE('',*,*,#199,.F.);
#266=ORIENTED_EDGE('',*,*,#210,.T.);
#267=ORIENTED_EDGE('',*,*,#210,.F.);
#268=ORIENTED_EDGE('',*,*,#211,.T.);
#269=ORIENTED_EDGE('',*,*,#212,.T.);
#270=ORIENTED_EDGE('',*,*,#213,.F.);
#271=ORIENTED_EDGE('',*,*,#202,.F.);
#272=ORIENTED_EDGE('',*,*,#214,.T.);
#273=ORIENTED_EDGE('',*,*,#215,.T.);
#274=ORIENTED_EDGE('',*,*,#211,.F.);
#275=ORIENTED_EDGE('',*,*,#203,.F.);
#276=ORIENTED_EDGE('',*,*,#216,.F.);
#277=ORIENTED_EDGE('',*,*,#217,.F.);
#278=ORIENTED_EDGE('',*,*,#218,.T.);
#279=ORIENTED_EDGE('',*,*,#200,.F.);
#280=ORIENTED_EDGE('',*,*,#219,.F.);
#281=ORIENTED_EDGE('',*,*,#220,.F.);
#282=ORIENTED_EDGE('',*,*,#216,.T.);
#283=ORIENTED_EDGE('',*,*,#208,.F.);
#284=ORIENTED_EDGE('',*,*,#213,.T.);
#285=ORIENTED_EDGE('',*,*,#221,.T.);
#286=ORIENTED_EDGE('',*,*,#222,.T.);
#287=ORIENTED_EDGE('',*,*,#205,.F.);
#288=ORIENTED_EDGE('',*,*,#222,.F.);
#289=ORIENTED_EDGE('',*,*,#223,.T.);
#290=ORIENTED_EDGE('',*,*,#214,.F.);
#291=ORIENTED_EDGE('',*,*,#209,.F.);
#292=ORIENTED_EDGE('',*,*,#224,.F.);
#293=ORIENTED_EDGE('',*,*,#225,.F.);
#294=ORIENTED_EDGE('',*,*,#219,.T.);
#295=ORIENTED_EDGE('',*,*,#206,.F.);
#296=ORIENTED_EDGE('',*,*,#218,.F.);
#297=ORIENTED_EDGE('',*,*,#226,.F.);
#298=ORIENTED_EDGE('',*,*,#224,.T.);
#299=ORIENTED_EDGE('',*,*,#221,.F.);
#300=ORIENTED_EDGE('',*,*,#212,.F.);
#301=ORIENTED_EDGE('',*,*,#215,.F.);
#302=ORIENTED_EDGE('',*,*,#223,.F.);
#303=ORIENTED_EDGE('',*,*,#227,.T.);
#304=ORIENTED_EDGE('',*,*,#228,.T.);
#305=ORIENTED_EDGE('',*,*,#229,.T.);
#306=ORIENTED_EDGE('',*,*,#230,.T.);
#307=ORIENTED_EDGE('',*,*,#231,.T.);
#308=ORIENTED_EDGE('',*,*,#230,.F.);
#309=ORIENTED_EDGE('',*,*,#232,.T.);
#310=ORIENTED_EDGE('',*,*,#198,.T.);
#311=ORIENTED_EDGE('',*,*,#232,.F.);
#312=ORIENTED_EDGE('',*,*,#229,.F.);
#313=ORIENTED_EDGE('',*,*,#233,.T.);
#314=ORIENTED_EDGE('',*,*,#195,.T.);
#315=ORIENTED_EDGE('',*,*,#233,.F.);
#316=ORIENTED_EDGE('',*,*,#228,.F.);
#317=ORIENTED_EDGE('',*,*,#234,.T.);
#318=ORIENTED_EDGE('',*,*,#196,.T.);
#319=ORIENTED_EDGE('',*,*,#234,.F.);
#320=ORIENTED_EDGE('',*,*,#227,.F.);
#321=ORIENTED_EDGE('',*,*,#231,.F.);
#322=ORIENTED_EDGE('',*,*,#197,.T.);
#323=ORIENTED_EDGE('',*,*,#235,.T.);
#324=ORIENTED_EDGE('',*,*,#236,.T.);
#325=ORIENTED_EDGE('',*,*,#237,.T.);
#326=ORIENTED_EDGE('',*,*,#238,.T.);
#327=ORIENTED_EDGE('',*,*,#226,.T.);
#328=ORIENTED_EDGE('',*,*,#217,.T.);
#329=ORIENTED_EDGE('',*,*,#220,.T.);
#330=ORIENTED_EDGE('',*,*,#225,.T.);
#331=ORIENTED_EDGE('',*,*,#239,.T.);
#332=ORIENTED_EDGE('',*,*,#240,.T.);
#333=ORIENTED_EDGE('',*,*,#238,.F.);
#334=ORIENTED_EDGE('',*,*,#241,.F.);
#335=ORIENTED_EDGE('',*,*,#242,.T.);
#336=ORIENTED_EDGE('',*,*,#241,.T.);
#337=ORIENTED_EDGE('',*,*,#237,.F.);
#338=ORIENTED_EDGE('',*,*,#243,.F.);
#339=ORIENTED_EDGE('',*,*,#244,.T.);
#340=ORIENTED_EDGE('',*,*,#243,.T.);
#341=ORIENTED_EDGE('',*,*,#236,.F.);
#342=ORIENTED_EDGE('',*,*,#245,.F.);
#343=ORIENTED_EDGE('',*,*,#246,.T.);
#344=ORIENTED_EDGE('',*,*,#245,.T.);
#345=ORIENTED_EDGE('',*,*,#235,.F.);
#346=ORIENTED_EDGE('',*,*,#240,.F.);
#347=ORIENTED_EDGE('',*,*,#246,.F.);
#348=ORIENTED_EDGE('',*,*,#239,.F.);
#349=ORIENTED_EDGE('',*,*,#242,.F.);
#350=ORIENTED_EDGE('',*,*,#244,.F.);
#351=PLANE('',#410);
#352=PLANE('',#427);
#353=PLANE('',#430);
#354=PLANE('',#431);
#355=PLANE('',#436);
#356=PLANE('',#437);
#357=PLANE('',#441);
#358=PLANE('',#443);
#359=PLANE('',#444);
#360=PLANE('',#447);
#361=PLANE('',#450);
#362=PLANE('',#453);
#363=ADVANCED_FACE('',(#29),#351,.T.);
#364=ADVANCED_FACE('',(#30),#21,.T.);
#365=ADVANCED_FACE('',(#31),#19,.T.);
#366=ADVANCED_FACE('',(#32),#22,.T.);
#367=ADVANCED_FACE('',(#33),#20,.T.);
#368=ADVANCED_FACE('',(#34),#17,.T.);
#369=ADVANCED_FACE('',(#35),#352,.T.);
#370=ADVANCED_FACE('',(#36),#23,.T.);
#371=ADVANCED_FACE('',(#37),#353,.T.);
#372=ADVANCED_FACE('',(#38),#354,.T.);
#373=ADVANCED_FACE('',(#39),#18,.T.);
#374=ADVANCED_FACE('',(#40),#24,.T.);
#375=ADVANCED_FACE('',(#41),#355,.T.);
#376=ADVANCED_FACE('',(#42,#15),#356,.T.);
#377=ADVANCED_FACE('',(#43),#25,.F.);
#378=ADVANCED_FACE('',(#44),#357,.T.);
#379=ADVANCED_FACE('',(#45),#26,.F.);
#380=ADVANCED_FACE('',(#46),#358,.T.);
#381=ADVANCED_FACE('',(#47,#16),#359,.T.);
#382=ADVANCED_FACE('',(#48),#360,.T.);
#383=ADVANCED_FACE('',(#49),#27,.T.);
#384=ADVANCED_FACE('',(#50),#361,.T.);
#385=ADVANCED_FACE('',(#51),#28,.T.);
#386=ADVANCED_FACE('',(#52),#362,.F.);
#387=CLOSED_SHELL('',(#363,#364,#365,#366,#367,#368,#369,#370,#371,#372,
#373,#374,#375,#376,#377,#378,#379,#380,#381,#382,#383,#384,#385,#386));
#388=DERIVED_UNIT_ELEMENT(#391,1.);
#389=DERIVED_UNIT_ELEMENT(#690,-3.);
#390=DIMENSIONAL_EXPONENTS(0.,1.,0.,0.,0.,0.,0.);
#391=(
CONVERSION_BASED_UNIT('gram',#393)
MASS_UNIT()
NAMED_UNIT(#390)
);
#392=(
MASS_UNIT()
NAMED_UNIT(*)
SI_UNIT(.KILO.,.GRAM.)
);
#393=MASS_MEASURE_WITH_UNIT(MASS_MEASURE(0.001),#392);
#394=DERIVED_UNIT((#388,#389));
#395=MEASURE_REPRESENTATION_ITEM('density measure',
POSITIVE_RATIO_MEASURE(1.6),#394);
#396=PROPERTY_DEFINITION_REPRESENTATION(#401,#398);
#397=PROPERTY_DEFINITION_REPRESENTATION(#402,#399);
#398=REPRESENTATION('material name',(#400),#687);
#399=REPRESENTATION('density',(#395),#687);
#400=DESCRIPTIVE_REPRESENTATION_ITEM('Generisch','Generisch');
#401=PROPERTY_DEFINITION('material property','material name',#697);
#402=PROPERTY_DEFINITION('material property','density of part',#697);
#403=DATE_TIME_ROLE('creation_date');
#404=APPLIED_DATE_AND_TIME_ASSIGNMENT(#405,#403,(#697));
#405=DATE_AND_TIME(#406,#407);
#406=CALENDAR_DATE(2025,25,10);
#407=LOCAL_TIME(0,0,0.,#408);
#408=COORDINATED_UNIVERSAL_TIME_OFFSET(0,0,.BEHIND.);
#409=AXIS2_PLACEMENT_3D('',#576,#454,#455);
#410=AXIS2_PLACEMENT_3D('',#577,#456,#457);
#411=AXIS2_PLACEMENT_3D('',#582,#459,#460);
#412=AXIS2_PLACEMENT_3D('',#585,#462,#463);
#413=AXIS2_PLACEMENT_3D('',#586,#464,#465);
#414=AXIS2_PLACEMENT_3D('',#589,#466,#467);
#415=AXIS2_PLACEMENT_3D('',#593,#469,#470);
#416=AXIS2_PLACEMENT_3D('',#595,#472,#473);
#417=AXIS2_PLACEMENT_3D('',#597,#474,#475);
#418=AXIS2_PLACEMENT_3D('',#599,#476,#477);
#419=AXIS2_PLACEMENT_3D('',#600,#478,#479);
#420=AXIS2_PLACEMENT_3D('',#601,#480,#481);
#421=AXIS2_PLACEMENT_3D('',#605,#483,#484);
#422=AXIS2_PLACEMENT_3D('',#607,#486,#487);
#423=AXIS2_PLACEMENT_3D('',#608,#488,#489);
#424=AXIS2_PLACEMENT_3D('',#609,#490,#491);
#425=AXIS2_PLACEMENT_3D('',#610,#492,#493);
#426=AXIS2_PLACEMENT_3D('',#614,#495,#496);
#427=AXIS2_PLACEMENT_3D('',#616,#498,#499);
#428=AXIS2_PLACEMENT_3D('',#620,#502,#503);
#429=AXIS2_PLACEMENT_3D('',#624,#505,#506);
#430=AXIS2_PLACEMENT_3D('',#626,#508,#509);
#431=AXIS2_PLACEMENT_3D('',#630,#512,#513);
#432=AXIS2_PLACEMENT_3D('',#634,#516,#517);
#433=AXIS2_PLACEMENT_3D('',#635,#518,#519);
#434=AXIS2_PLACEMENT_3D('',#636,#520,#521);
#435=AXIS2_PLACEMENT_3D('',#639,#523,#524);
#436=AXIS2_PLACEMENT_3D('',#640,#525,#526);
#437=AXIS2_PLACEMENT_3D('',#642,#528,#529);
#438=AXIS2_PLACEMENT_3D('',#647,#531,#532);
#439=AXIS2_PLACEMENT_3D('',#650,#534,#535);
#440=AXIS2_PLACEMENT_3D('',#651,#536,#537);
#441=AXIS2_PLACEMENT_3D('',#654,#540,#541);
#442=AXIS2_PLACEMENT_3D('',#656,#543,#544);
#443=AXIS2_PLACEMENT_3D('',#658,#546,#547);
#444=AXIS2_PLACEMENT_3D('',#659,#548,#549);
#445=AXIS2_PLACEMENT_3D('',#662,#550,#551);
#446=AXIS2_PLACEMENT_3D('',#666,#553,#554);
#447=AXIS2_PLACEMENT_3D('',#668,#556,#557);
#448=AXIS2_PLACEMENT_3D('',#674,#561,#562);
#449=AXIS2_PLACEMENT_3D('',#676,#563,#564);
#450=AXIS2_PLACEMENT_3D('',#678,#566,#567);
#451=AXIS2_PLACEMENT_3D('',#682,#570,#571);
#452=AXIS2_PLACEMENT_3D('',#683,#572,#573);
#453=AXIS2_PLACEMENT_3D('',#684,#574,#575);
#454=DIRECTION('axis',(0.,0.,1.));
#455=DIRECTION('refdir',(1.,0.,0.));
#456=DIRECTION('center_axis',(0.,0.,1.));
#457=DIRECTION('ref_axis',(1.,0.,0.));
#458=DIRECTION('',(1.,2.92934834993445E-16,0.));
#459=DIRECTION('center_axis',(0.,0.,-1.));
#460=DIRECTION('ref_axis',(-1.98254111540206E-16,1.,0.));
#461=DIRECTION('',(-1.,-5.8586966998689E-17,0.));
#462=DIRECTION('center_axis',(0.,0.,-1.));
#463=DIRECTION('ref_axis',(0.,-1.,0.));
#464=DIRECTION('center_axis',(-1.,-1.75760900996067E-16,-7.20773433063072E-32));
#465=DIRECTION('ref_axis',(0.,0.984807753012208,0.17364817766693));
#466=DIRECTION('center_axis',(-1.,0.,0.));
#467=DIRECTION('ref_axis',(0.,0.939692620785908,0.342020143325669));
#468=DIRECTION('',(-1.,-1.75760900996067E-16,-7.20773433063072E-32));
#469=DIRECTION('center_axis',(1.,4.44089209850062E-15,7.83049095380711E-16));
#470=DIRECTION('ref_axis',(-4.44089209850062E-15,1.,0.));
#471=DIRECTION('',(1.,1.75760900996067E-16,6.36458958104414E-32));
#472=DIRECTION('center_axis',(0.,0.,1.));
#473=DIRECTION('ref_axis',(-1.,1.22464679914735E-16,0.));
#474=DIRECTION('center_axis',(0.,0.,1.));
#475=DIRECTION('ref_axis',(-1.,6.12323399573677E-17,0.));
#476=DIRECTION('center_axis',(-1.,4.44089209850062E-15,-7.83049095380711E-16));
#477=DIRECTION('ref_axis',(-4.44089209850062E-15,-1.,0.));
#478=DIRECTION('center_axis',(0.,0.,-1.));
#479=DIRECTION('ref_axis',(-1.,1.11022302462516E-16,0.));
#480=DIRECTION('center_axis',(1.,0.,0.));
#481=DIRECTION('ref_axis',(0.,-0.984807753012208,0.173648177666931));
#482=DIRECTION('',(1.,0.,0.));
#483=DIRECTION('center_axis',(-1.,-4.44089209850062E-15,7.83049095380711E-16));
#484=DIRECTION('ref_axis',(4.44089209850062E-15,-1.,0.));
#485=DIRECTION('',(-1.,0.,0.));
#486=DIRECTION('center_axis',(0.,0.,1.));
#487=DIRECTION('ref_axis',(1.,0.,0.));
#488=DIRECTION('center_axis',(0.,0.,1.));
#489=DIRECTION('ref_axis',(1.,-6.12323399573677E-17,0.));
#490=DIRECTION('center_axis',(0.,0.,-1.));
#491=DIRECTION('ref_axis',(1.,-1.11022302462516E-16,0.));
#492=DIRECTION('center_axis',(0.,0.,-1.));
#493=DIRECTION('ref_axis',(0.,-1.,0.));
#494=DIRECTION('',(2.02516606936401E-15,-0.342020143325671,0.939692620785908));
#495=DIRECTION('center_axis',(0.,0.,-1.));
#496=DIRECTION('ref_axis',(0.,-1.,0.));
#497=DIRECTION('',(-2.02516606936401E-15,0.342020143325669,0.939692620785908));
#498=DIRECTION('center_axis',(-1.65161221688687E-16,0.939692620785908,0.342020143325669));
#499=DIRECTION('ref_axis',(0.,-0.342020143325669,0.939692620785908));
#500=DIRECTION('',(0.,-0.342020143325669,0.939692620785908));
#501=DIRECTION('',(1.,1.75760900996067E-16,0.));
#502=DIRECTION('center_axis',(0.,0.,1.));
#503=DIRECTION('ref_axis',(0.,1.,0.));
#504=DIRECTION('',(0.,0.,1.));
#505=DIRECTION('center_axis',(0.,0.,-1.));
#506=DIRECTION('ref_axis',(0.,1.,0.));
#507=DIRECTION('',(0.,0.,1.));
#508=DIRECTION('center_axis',(-1.75760900996067E-16,1.,0.));
#509=DIRECTION('ref_axis',(-1.,-1.75760900996067E-16,0.));
#510=DIRECTION('',(0.,0.,1.));
#511=DIRECTION('',(1.,1.75760900996067E-16,0.));
#512=DIRECTION('center_axis',(0.,-0.939692620785908,0.342020143325669));
#513=DIRECTION('ref_axis',(0.,-0.342020143325669,-0.939692620785908));
#514=DIRECTION('',(-1.,0.,0.));
#515=DIRECTION('',(0.,-0.342020143325669,-0.939692620785908));
#516=DIRECTION('center_axis',(0.,0.,-1.));
#517=DIRECTION('ref_axis',(0.,1.,0.));
#518=DIRECTION('center_axis',(0.,0.,-1.));
#519=DIRECTION('ref_axis',(0.,1.,0.));
#520=DIRECTION('center_axis',(0.,0.,1.));
#521=DIRECTION('ref_axis',(0.,-1.,0.));
#522=DIRECTION('',(0.,0.,1.));
#523=DIRECTION('center_axis',(0.,0.,-1.));
#524=DIRECTION('ref_axis',(0.,-1.,0.));
#525=DIRECTION('center_axis',(0.,-1.,0.));
#526=DIRECTION('ref_axis',(1.,0.,0.));
#527=DIRECTION('',(-1.,0.,0.));
#528=DIRECTION('center_axis',(0.,0.,1.));
#529=DIRECTION('ref_axis',(1.,0.,0.));
#530=DIRECTION('',(-1.,-5.8586966998689E-17,0.));
#531=DIRECTION('center_axis',(0.,0.,-1.));
#532=DIRECTION('ref_axis',(1.98254111540206E-16,-1.,0.));
#533=DIRECTION('',(1.,2.92934834993445E-16,0.));
#534=DIRECTION('center_axis',(0.,0.,-1.));
#535=DIRECTION('ref_axis',(0.,1.,0.));
#536=DIRECTION('center_axis',(0.,0.,1.));
#537=DIRECTION('ref_axis',(0.,1.,0.));
#538=DIRECTION('',(0.,0.,1.));
#539=DIRECTION('',(0.,0.,-1.));
#540=DIRECTION('center_axis',(2.92934834993445E-16,-1.,0.));
#541=DIRECTION('ref_axis',(1.,2.92934834993445E-16,0.));
#542=DIRECTION('',(0.,0.,-1.));
#543=DIRECTION('center_axis',(0.,0.,1.));
#544=DIRECTION('ref_axis',(1.98254111540206E-16,-1.,0.));
#545=DIRECTION('',(0.,0.,-1.));
#546=DIRECTION('center_axis',(-5.8586966998689E-17,1.,0.));
#547=DIRECTION('ref_axis',(-1.,-5.8586966998689E-17,0.));
#548=DIRECTION('center_axis',(0.,0.,1.));
#549=DIRECTION('ref_axis',(1.,0.,0.));
#550=DIRECTION('center_axis',(0.,0.,1.));
#551=DIRECTION('ref_axis',(1.7415263131375E-16,-1.,0.));
#552=DIRECTION('',(-1.,-1.75298372309235E-16,0.));
#553=DIRECTION('center_axis',(0.,0.,1.));
#554=DIRECTION('ref_axis',(-1.7415263131375E-16,1.,0.));
#555=DIRECTION('',(1.,2.92163953848725E-16,0.));
#556=DIRECTION('center_axis',(2.92163953848725E-16,-1.,0.));
#557=DIRECTION('ref_axis',(1.,2.92163953848725E-16,0.));
#558=DIRECTION('',(1.,2.92163953848725E-16,0.));
#559=DIRECTION('',(0.,0.,1.));
#560=DIRECTION('',(0.,0.,1.));
#561=DIRECTION('center_axis',(0.,0.,1.));
#562=DIRECTION('ref_axis',(-1.7415263131375E-16,1.,0.));
#563=DIRECTION('center_axis',(0.,0.,1.));
#564=DIRECTION('ref_axis',(-1.7415263131375E-16,1.,0.));
#565=DIRECTION('',(0.,0.,1.));
#566=DIRECTION('center_axis',(-1.75298372309235E-16,1.,0.));
#567=DIRECTION('ref_axis',(-1.,-1.75298372309235E-16,0.));
#568=DIRECTION('',(-1.,-1.75298372309235E-16,0.));
#569=DIRECTION('',(0.,0.,1.));
#570=DIRECTION('center_axis',(0.,0.,1.));
#571=DIRECTION('ref_axis',(1.7415263131375E-16,-1.,0.));
#572=DIRECTION('center_axis',(0.,0.,1.));
#573=DIRECTION('ref_axis',(1.7415263131375E-16,-1.,0.));
#574=DIRECTION('center_axis',(0.,0.,1.));
#575=DIRECTION('ref_axis',(1.,0.,0.));
#576=CARTESIAN_POINT('',(0.,0.,0.));
#577=CARTESIAN_POINT('Origin',(0.,5.77315972805081E-14,5.));
#578=CARTESIAN_POINT('',(-75.8,44.8,5.));
#579=CARTESIAN_POINT('',(75.8,44.8000000000001,5.));
#580=CARTESIAN_POINT('',(75.8,44.8000000000001,5.));
#581=CARTESIAN_POINT('',(-75.8,-44.8,5.));
#582=CARTESIAN_POINT('Origin',(-75.8,4.1800256871897E-14,5.));
#583=CARTESIAN_POINT('',(75.8,-44.8,5.));
#584=CARTESIAN_POINT('',(-75.8,-44.8,5.));
#585=CARTESIAN_POINT('Origin',(75.8,4.1800256871897E-14,5.));
#586=CARTESIAN_POINT('Origin',(56.85,45.8000000000001,10.5261299094011));
#587=CARTESIAN_POINT('',(75.8,47.6793852415719,11.2101701960525));
#588=CARTESIAN_POINT('',(75.8,47.8000000000001,10.5261299094011));
#589=CARTESIAN_POINT('Origin',(75.8,45.8000000000001,10.5261299094011));
#590=CARTESIAN_POINT('',(-75.8,47.8,10.5261299094011));
#591=CARTESIAN_POINT('',(56.85,47.8000000000001,10.5261299094011));
#592=CARTESIAN_POINT('',(-75.8,47.6793852415719,11.2101701960525));
#593=CARTESIAN_POINT('Origin',(-75.8,45.8,10.5261299094011));
#594=CARTESIAN_POINT('',(56.85,47.6793852415719,11.2101701960525));
#595=CARTESIAN_POINT('Origin',(-75.8,4.1800256871897E-14,10.5261299094011));
#596=CARTESIAN_POINT('',(-75.8,-47.8,10.5261299094011));
#597=CARTESIAN_POINT('Origin',(-75.8,4.1800256871897E-14,10.5261299094011));
#598=CARTESIAN_POINT('',(-75.8,-47.6793852415718,11.2101701960525));
#599=CARTESIAN_POINT('Origin',(-75.8,-45.8,10.5261299094011));
#600=CARTESIAN_POINT('Origin',(-75.8,3.94263020684506E-14,11.2101701960525));
#601=CARTESIAN_POINT('Origin',(-56.85,-45.8,10.5261299094011));
#602=CARTESIAN_POINT('',(75.8,-47.8,10.5261299094011));
#603=CARTESIAN_POINT('',(-56.85,-47.8,10.5261299094011));
#604=CARTESIAN_POINT('',(75.8,-47.6793852415718,11.2101701960525));
#605=CARTESIAN_POINT('Origin',(75.8,-45.8,10.5261299094011));
#606=CARTESIAN_POINT('',(-56.85,-47.6793852415718,11.2101701960525));
#607=CARTESIAN_POINT('Origin',(75.8,4.1800256871897E-14,10.5261299094011));
#608=CARTESIAN_POINT('Origin',(75.8,4.1800256871897E-14,10.5261299094011));
#609=CARTESIAN_POINT('Origin',(75.8,4.41742116753434E-14,11.2101701960525));
#610=CARTESIAN_POINT('Origin',(75.8,4.1800256871897E-14,12.939391935409));
#611=CARTESIAN_POINT('',(75.8,46.3000000000001,15.));
#612=CARTESIAN_POINT('',(75.8,47.8000000000001,10.8787838708181));
#613=CARTESIAN_POINT('',(75.8,-46.3,15.));
#614=CARTESIAN_POINT('Origin',(75.8,4.1800256871897E-14,15.));
#615=CARTESIAN_POINT('',(75.8,-47.8,10.8787838708181));
#616=CARTESIAN_POINT('Origin',(37.9,47.0500000000001,12.939391935409));
#617=CARTESIAN_POINT('',(-75.8,46.3,15.));
#618=CARTESIAN_POINT('',(-75.8,47.8,10.8787838708181));
#619=CARTESIAN_POINT('',(37.9,46.3000000000001,15.));
#620=CARTESIAN_POINT('Origin',(-75.8,4.1800256871897E-14,10.));
#621=CARTESIAN_POINT('',(-75.8,47.8,10.));
#622=CARTESIAN_POINT('',(-75.8,47.8,10.));
#623=CARTESIAN_POINT('',(-75.8,-47.8,10.));
#624=CARTESIAN_POINT('Origin',(-75.8,4.1800256871897E-14,10.));
#625=CARTESIAN_POINT('',(-75.8,-47.8,10.));
#626=CARTESIAN_POINT('Origin',(75.8,47.8000000000001,10.));
#627=CARTESIAN_POINT('',(75.8,47.8000000000001,10.));
#628=CARTESIAN_POINT('',(75.8,47.8000000000001,10.));
#629=CARTESIAN_POINT('',(37.9,47.8000000000001,10.));
#630=CARTESIAN_POINT('Origin',(-37.9,-47.05,12.939391935409));
#631=CARTESIAN_POINT('',(-75.8,-46.3,15.));
#632=CARTESIAN_POINT('',(-37.9,-46.3,15.));
#633=CARTESIAN_POINT('',(-75.8,-46.3,15.));
#634=CARTESIAN_POINT('Origin',(-75.8,4.1800256871897E-14,12.939391935409));
#635=CARTESIAN_POINT('Origin',(-75.8,4.1800256871897E-14,15.));
#636=CARTESIAN_POINT('Origin',(75.8,4.1800256871897E-14,10.));
#637=CARTESIAN_POINT('',(75.8,-47.8,10.));
#638=CARTESIAN_POINT('',(75.8,-47.8,10.));
#639=CARTESIAN_POINT('Origin',(75.8,4.1800256871897E-14,10.));
#640=CARTESIAN_POINT('Origin',(-75.8,-47.8,10.));
#641=CARTESIAN_POINT('',(-37.9,-47.8,10.));
#642=CARTESIAN_POINT('Origin',(0.,4.88498130835069E-14,15.));
#643=CARTESIAN_POINT('',(75.8,-44.8,15.));
#644=CARTESIAN_POINT('',(-75.8,-44.8,15.));
#645=CARTESIAN_POINT('',(75.8,-44.8,15.));
#646=CARTESIAN_POINT('',(-75.8,44.8,15.));
#647=CARTESIAN_POINT('Origin',(-75.8,4.1800256871897E-14,15.));
#648=CARTESIAN_POINT('',(75.8,44.8000000000001,15.));
#649=CARTESIAN_POINT('',(-75.8,44.8,15.));
#650=CARTESIAN_POINT('Origin',(75.8,4.1800256871897E-14,15.));
#651=CARTESIAN_POINT('Origin',(75.8,4.1800256871897E-14,10.));
#652=CARTESIAN_POINT('',(75.8,-44.8,10.));
#653=CARTESIAN_POINT('',(75.8,44.8000000000001,10.));
#654=CARTESIAN_POINT('Origin',(-75.8,44.8,10.));
#655=CARTESIAN_POINT('',(-75.8,44.8,10.));
#656=CARTESIAN_POINT('Origin',(-75.8,4.1800256871897E-14,10.));
#657=CARTESIAN_POINT('',(-75.8,-44.8,10.));
#658=CARTESIAN_POINT('Origin',(75.8,-44.8,10.));
#659=CARTESIAN_POINT('Origin',(1.77635683940025E-14,1.33226762955019E-14,
10.));
#660=CARTESIAN_POINT('',(76.,-51.,10.));
#661=CARTESIAN_POINT('',(76.,51.,10.));
#662=CARTESIAN_POINT('Origin',(76.,2.66453525910038E-14,10.));
#663=CARTESIAN_POINT('',(-76.,51.,10.));
#664=CARTESIAN_POINT('',(76.,51.,10.));
#665=CARTESIAN_POINT('',(-76.,-51.,10.));
#666=CARTESIAN_POINT('Origin',(-76.,0.,10.));
#667=CARTESIAN_POINT('',(-76.,-51.,10.));
#668=CARTESIAN_POINT('Origin',(-76.,-51.,0.));
#669=CARTESIAN_POINT('',(-76.,-51.,0.));
#670=CARTESIAN_POINT('',(76.,-51.,0.));
#671=CARTESIAN_POINT('',(-76.,-51.,0.));
#672=CARTESIAN_POINT('',(76.,-51.,0.));
#673=CARTESIAN_POINT('',(-76.,-51.,0.));
#674=CARTESIAN_POINT('Origin',(-76.,0.,0.));
#675=CARTESIAN_POINT('',(-76.,51.,0.));
#676=CARTESIAN_POINT('Origin',(-76.,0.,0.));
#677=CARTESIAN_POINT('',(-76.,51.,0.));
#678=CARTESIAN_POINT('Origin',(76.,51.,0.));
#679=CARTESIAN_POINT('',(76.,51.,0.));
#680=CARTESIAN_POINT('',(76.,51.,0.));
#681=CARTESIAN_POINT('',(76.,51.,0.));
#682=CARTESIAN_POINT('Origin',(76.,2.66453525910038E-14,0.));
#683=CARTESIAN_POINT('Origin',(76.,2.66453525910038E-14,0.));
#684=CARTESIAN_POINT('Origin',(1.77635683940025E-14,1.33226762955019E-14,
0.));
#685=UNCERTAINTY_MEASURE_WITH_UNIT(LENGTH_MEASURE(0.01),#689,
'DISTANCE_ACCURACY_VALUE',
'Maximum model space distance between geometric entities at asserted c
onnectivities');
#686=UNCERTAINTY_MEASURE_WITH_UNIT(LENGTH_MEASURE(0.01),#689,
'DISTANCE_ACCURACY_VALUE',
'Maximum model space distance between geometric entities at asserted c
onnectivities');
#687=(
GEOMETRIC_REPRESENTATION_CONTEXT(3)
GLOBAL_UNCERTAINTY_ASSIGNED_CONTEXT((#685))
GLOBAL_UNIT_ASSIGNED_CONTEXT((#689,#691,#692))
REPRESENTATION_CONTEXT('','3D')
);
#688=(
GEOMETRIC_REPRESENTATION_CONTEXT(3)
GLOBAL_UNCERTAINTY_ASSIGNED_CONTEXT((#686))
GLOBAL_UNIT_ASSIGNED_CONTEXT((#689,#691,#692))
REPRESENTATION_CONTEXT('','3D')
);
#689=(
LENGTH_UNIT()
NAMED_UNIT(*)
SI_UNIT(.MILLI.,.METRE.)
);
#690=(
LENGTH_UNIT()
NAMED_UNIT(*)
SI_UNIT(.CENTI.,.METRE.)
);
#691=(
NAMED_UNIT(*)
PLANE_ANGLE_UNIT()
SI_UNIT($,.RADIAN.)
);
#692=(
NAMED_UNIT(*)
SI_UNIT($,.STERADIAN.)
SOLID_ANGLE_UNIT()
);
#693=SHAPE_DEFINITION_REPRESENTATION(#694,#695);
#694=PRODUCT_DEFINITION_SHAPE('',$,#697);
#695=SHAPE_REPRESENTATION('',(#409),#687);
#696=PRODUCT_DEFINITION_CONTEXT('part definition',#701,'design');
#697=PRODUCT_DEFINITION('Deckel','Deckel',#698,#696);
#698=PRODUCT_DEFINITION_FORMATION('',$,#703);
#699=PRODUCT_RELATED_PRODUCT_CATEGORY('Deckel','Deckel',(#703));
#700=APPLICATION_PROTOCOL_DEFINITION('international standard',
'automotive_design',2009,#701);
#701=APPLICATION_CONTEXT(
'Core Data for Automotive Mechanical Design Process');
#702=PRODUCT_CONTEXT('part definition',#701,'mechanical');
#703=PRODUCT('Deckel','Deckel',$,(#702));
#704=PRESENTATION_STYLE_ASSIGNMENT((#705));
#705=SURFACE_STYLE_USAGE(.BOTH.,#708);
#706=SURFACE_STYLE_RENDERING_WITH_PROPERTIES($,#712,(#707));
#707=SURFACE_STYLE_TRANSPARENT(0.);
#708=SURFACE_SIDE_STYLE('',(#709,#706));
#709=SURFACE_STYLE_FILL_AREA(#710);
#710=FILL_AREA_STYLE('',(#711));
#711=FILL_AREA_STYLE_COLOUR('',#712);
#712=COLOUR_RGB('',0.580392156862745,0.541176470588235,0.443137254901961);
ENDSEC;
END-ISO-10303-21;
